<svg xmlns="http://www.w3.org/2000/svg" xmlns:xlink="http://www.w3.org/1999/xlink" width="6912" zoomAndPan="magnify" viewBox="0 0 5184 2592.000001" height="3456" preserveAspectRatio="xMidYMid meet" version="1.0"><defs><g/><clipPath id="bada43cbc4"><path d="M 2888.621094 727 L 3013 727 L 3013 739 L 2888.621094 739 Z M 2888.621094 727 " clip-rule="nonzero"/></clipPath><clipPath id="63b63023aa"><path d="M 3546 651 L 3979.449219 651 L 3979.449219 2082 L 3546 2082 Z M 3546 651 " clip-rule="nonzero"/></clipPath></defs><g clip-path="url(#bada43cbc4)"><path fill="#da5726" d="M 3012.488281 727.3125 L 2888.621094 738.652344 L 3012.488281 737.78125 Z M 3012.488281 727.3125 " fill-opacity="1" fill-rule="nonzero"/></g><path fill="#da5726" d="M 3075.878906 722.078125 L 3075.878906 737.925781 L 3479.324219 735.453125 L 3479.03125 685.144531 Z M 3075.878906 722.078125 " fill-opacity="1" fill-rule="nonzero"/><path fill="#da5726" d="M 3525.992188 812.371094 C 3525.847656 752.175781 3525.121094 549.632812 3525.992188 527.386719 C 3526.574219 512.847656 3517.996094 447.273438 3466.09375 393.328125 C 3421.3125 346.800781 3358.507812 323.246094 3279.417969 323.246094 C 3042.292969 323.246094 3030.953125 540.617188 3030.953125 543.234375 L 3030.953125 812.226562 C 3023.828125 816.878906 3019.03125 825.019531 3019.03125 834.179688 C 3019.03125 848.722656 3030.808594 860.5 3045.347656 860.5 C 3059.886719 860.5 3071.660156 848.722656 3071.660156 834.179688 C 3071.660156 823.566406 3065.410156 814.550781 3056.25 810.335938 L 3056.25 543.671875 C 3056.542969 535.675781 3066.425781 348.398438 3279.5625 348.398438 C 3351.527344 348.398438 3408.230469 369.335938 3448.066406 410.777344 C 3490.082031 454.394531 3501.421875 510.8125 3500.839844 526.371094 C 3499.96875 549.050781 3500.550781 747.378906 3500.695312 810.335938 C 3491.679688 814.550781 3485.285156 823.566406 3485.285156 834.179688 C 3485.285156 848.722656 3497.058594 860.5 3511.597656 860.5 C 3526.136719 860.5 3537.914062 848.722656 3537.914062 834.179688 C 3537.914062 825.019531 3533.117188 817.023438 3525.992188 812.371094 Z M 3525.992188 812.371094 " fill-opacity="1" fill-rule="nonzero"/><g clip-path="url(#63b63023aa)"><path fill="#da5726" d="M 3868.085938 685.726562 L 3851.074219 651.703125 L 3844.09375 652.285156 L 3700.601562 665.371094 L 3546.78125 679.476562 L 3547.21875 735.019531 L 3745.234375 733.855469 C 4088.78125 1311.382812 3707.289062 2064.992188 3699 2081.277344 C 4101.136719 1513.78125 3986.574219 879.835938 3868.085938 685.726562 Z M 3868.085938 685.726562 " fill-opacity="1" fill-rule="nonzero"/></g><g fill="#591f27" fill-opacity="1"><g transform="translate(1877.371871, 1350.311363)"><g><path d="M 113.277344 2.609375 C 154.46875 2.609375 188.246094 -18.125 202.9375 -53.136719 L 172.316406 -64.808594 C 162.15625 -41.328125 139.914062 -28.011719 113.277344 -28.011719 C 76.203125 -28.011719 47.234375 -53.6875 47.234375 -98.035156 C 47.234375 -142.109375 76.203125 -167.925781 113.277344 -167.925781 C 139.914062 -167.925781 162.15625 -154.46875 172.316406 -130.988281 L 202.9375 -142.660156 C 188.246094 -177.671875 154.46875 -198.542969 113.277344 -198.542969 C 56.980469 -198.542969 14.417969 -159.960938 14.417969 -98.035156 C 14.417969 -35.835938 56.980469 2.609375 113.277344 2.609375 Z M 113.277344 2.609375 "/></g></g></g><g fill="#591f27" fill-opacity="1"><g transform="translate(2112.691629, 1350.311363)"><g><path d="M 54.921875 2.609375 C 71.535156 2.609375 89.25 -3.15625 99.957031 -18.261719 L 101.46875 -18.261719 C 104.625 -5.492188 113.964844 0 129.480469 0 L 144.445312 0 L 144.445312 -21.558594 L 142.25 -21.558594 C 132.636719 -21.558594 129.203125 -25.265625 129.203125 -38.308594 L 129.203125 -91.855469 C 129.203125 -130.714844 101.332031 -140.601562 73.734375 -140.601562 C 39.542969 -140.601562 18.949219 -127.417969 14.140625 -98.859375 L 42.566406 -93.640625 C 44.625 -111.355469 56.84375 -117.945312 71.8125 -117.945312 C 85.542969 -117.945312 98.859375 -112.316406 98.859375 -95.289062 C 98.859375 -88.699219 95.152344 -84.582031 86.089844 -82.796875 L 65.21875 -78.949219 C 36.386719 -73.734375 12.359375 -64.535156 12.359375 -35.011719 C 12.359375 -8.101562 32.542969 2.609375 54.921875 2.609375 Z M 62.335938 -22.242188 C 51.488281 -22.242188 42.976562 -26.773438 42.976562 -37.621094 C 42.976562 -48.058594 51.078125 -53 65.632812 -55.746094 L 100.917969 -63.574219 C 100.917969 -38.308594 84.03125 -22.242188 62.335938 -22.242188 Z M 62.335938 -22.242188 "/></g></g></g><g fill="#591f27" fill-opacity="1"><g transform="translate(2287.871625, 1350.311363)"><g><path d="M 174.925781 -140.738281 C 157.078125 -140.738281 142.523438 -133.460938 133.460938 -119.179688 C 126.320312 -133.1875 111.628906 -140.738281 92.820312 -140.738281 C 76.066406 -140.738281 62.472656 -133.597656 53.824219 -121.101562 L 53.824219 -138.128906 L 22.378906 -138.128906 L 22.378906 0 L 53.824219 0 L 53.824219 -80.1875 C 53.824219 -105.585938 66.59375 -114.925781 81.421875 -114.925781 C 94.878906 -114.925781 106 -106.410156 106 -87.328125 L 106 0 L 138.128906 0 L 138.128906 -81.558594 C 138.128906 -105.585938 150.488281 -114.925781 165.589844 -114.925781 C 178.496094 -114.925781 189.757812 -106.6875 189.757812 -88.011719 L 189.757812 0 L 221.472656 0 L 221.472656 -96.800781 C 221.472656 -125.359375 202.664062 -140.738281 174.925781 -140.738281 Z M 174.925781 -140.738281 "/></g></g></g><g fill="#591f27" fill-opacity="1"><g transform="translate(2551.750901, 1350.311363)"><g><path d="M 99.410156 -140.738281 C 79.226562 -140.738281 61.648438 -131.402344 53.410156 -115.609375 L 52.589844 -138.128906 L 22.378906 -138.128906 L 22.378906 69.203125 L 53.960938 69.203125 L 53.960938 -21.007812 C 62.335938 -6.042969 79.636719 3.15625 99.410156 3.15625 C 135.246094 3.15625 164.765625 -24.027344 164.765625 -68.925781 C 164.765625 -113.550781 135.246094 -140.738281 99.410156 -140.738281 Z M 92.542969 -23.617188 C 69.476562 -23.617188 51.488281 -42.289062 51.488281 -68.925781 C 51.488281 -95.289062 69.476562 -113.964844 92.542969 -113.964844 C 114.925781 -113.964844 133.1875 -97.074219 133.1875 -68.925781 C 133.1875 -40.640625 114.925781 -23.617188 92.542969 -23.617188 Z M 92.542969 -23.617188 "/></g></g></g><g fill="#591f27" fill-opacity="1"><g transform="translate(2750.410104, 1350.311363)"><g><path d="M 111.082031 -138.128906 L 111.082031 -58.765625 C 110.941406 -33.089844 96.113281 -23.203125 78.675781 -23.203125 C 63.984375 -23.203125 51.351562 -31.167969 51.351562 -52.039062 L 51.351562 -138.128906 L 19.496094 -138.128906 L 19.496094 -45.171875 C 19.496094 -14.28125 38.445312 2.609375 69.203125 2.609375 C 87.601562 2.609375 102.566406 -4.667969 111.765625 -17.300781 L 112.589844 0 L 142.660156 0 L 142.660156 -138.128906 Z M 111.082031 -138.128906 "/></g></g></g><g fill="#591f27" fill-opacity="1"><g transform="translate(2937.947604, 1350.311363)"><g><path d="M 68.515625 2.609375 C 96.9375 2.609375 122.476562 -8.648438 122.476562 -39.269531 C 122.476562 -68.515625 98.859375 -76.753906 77.304688 -82.382812 C 59.726562 -87.050781 43.527344 -89.796875 43.527344 -102.980469 C 43.527344 -114.375 54.648438 -118.769531 66.042969 -118.769531 C 78.8125 -118.769531 89.796875 -113.003906 93.503906 -98.449219 L 120.691406 -104.351562 C 115.886719 -130.027344 91.996094 -140.601562 65.90625 -140.601562 C 37.347656 -140.601562 14.417969 -128.105469 14.417969 -100.371094 C 14.417969 -76.34375 31.71875 -68.242188 49.566406 -62.472656 C 71.671875 -55.058594 91.71875 -53.136719 91.996094 -37.484375 C 92.269531 -24.164062 79.910156 -20.046875 68.515625 -20.046875 C 53 -20.046875 41.328125 -27.597656 37.621094 -43.25 L 10.847656 -35.699219 C 15.515625 -10.160156 38.445312 2.609375 68.515625 2.609375 Z M 68.515625 2.609375 "/></g></g></g><g fill="#591f27" fill-opacity="1"><g transform="translate(3095.003305, 1350.311363)"><g/></g></g><g fill="#591f27" fill-opacity="1"><g transform="translate(3190.546122, 1350.311363)"><g><path d="M 113.277344 2.609375 C 154.46875 2.609375 188.246094 -18.125 202.9375 -53.136719 L 172.316406 -64.808594 C 162.15625 -41.328125 139.914062 -28.011719 113.277344 -28.011719 C 76.203125 -28.011719 47.234375 -53.6875 47.234375 -98.035156 C 47.234375 -142.109375 76.203125 -167.925781 113.277344 -167.925781 C 139.914062 -167.925781 162.15625 -154.46875 172.316406 -130.988281 L 202.9375 -142.660156 C 188.246094 -177.671875 154.46875 -198.542969 113.277344 -198.542969 C 56.980469 -198.542969 14.417969 -159.960938 14.417969 -98.035156 C 14.417969 -35.835938 56.980469 2.609375 113.277344 2.609375 Z M 113.277344 2.609375 "/></g></g></g><g fill="#591f27" fill-opacity="1"><g transform="translate(3425.86588, 1350.311363)"><g><path d="M 54.921875 2.609375 C 71.535156 2.609375 89.25 -3.15625 99.957031 -18.261719 L 101.46875 -18.261719 C 104.625 -5.492188 113.964844 0 129.480469 0 L 144.445312 0 L 144.445312 -21.558594 L 142.25 -21.558594 C 132.636719 -21.558594 129.203125 -25.265625 129.203125 -38.308594 L 129.203125 -91.855469 C 129.203125 -130.714844 101.332031 -140.601562 73.734375 -140.601562 C 39.542969 -140.601562 18.949219 -127.417969 14.140625 -98.859375 L 42.566406 -93.640625 C 44.625 -111.355469 56.84375 -117.945312 71.8125 -117.945312 C 85.542969 -117.945312 98.859375 -112.316406 98.859375 -95.289062 C 98.859375 -88.699219 95.152344 -84.582031 86.089844 -82.796875 L 65.21875 -78.949219 C 36.386719 -73.734375 12.359375 -64.535156 12.359375 -35.011719 C 12.359375 -8.101562 32.542969 2.609375 54.921875 2.609375 Z M 62.335938 -22.242188 C 51.488281 -22.242188 42.976562 -26.773438 42.976562 -37.621094 C 42.976562 -48.058594 51.078125 -53 65.632812 -55.746094 L 100.917969 -63.574219 C 100.917969 -38.308594 84.03125 -22.242188 62.335938 -22.242188 Z M 62.335938 -22.242188 "/></g></g></g><g fill="#591f27" fill-opacity="1"><g transform="translate(3601.045786, 1350.311363)"><g><path d="M 53.550781 -116.160156 L 52.589844 -138.128906 L 22.378906 -138.128906 L 22.378906 0 L 54.097656 0 L 54.097656 -70.4375 C 54.097656 -100.507812 69.203125 -110.804688 97.347656 -110.804688 L 97.347656 -139.640625 C 77.851562 -139.503906 60.6875 -129.203125 53.550781 -116.160156 Z M 53.550781 -116.160156 "/></g></g></g><g fill="#591f27" fill-opacity="1"><g transform="translate(3723.912319, 1350.311363)"><g><path d="M 70.164062 0 L 92.679688 0 L 92.679688 -24.441406 L 80.1875 -24.441406 C 69.613281 -24.441406 62.609375 -30.757812 62.609375 -43.664062 L 62.609375 -113.414062 L 92.679688 -113.414062 L 92.679688 -138.128906 L 62.609375 -138.128906 L 62.609375 -183.300781 L 33.777344 -183.300781 L 33.777344 -161.882812 C 33.777344 -143.894531 27.050781 -138.128906 12.496094 -138.128906 L 3.019531 -138.128906 L 3.019531 -113.414062 L 30.617188 -113.414062 L 30.617188 -40.367188 C 30.617188 -14.554688 45.449219 0 70.164062 0 Z M 70.164062 0 "/></g></g></g></svg>