<svg xmlns="http://www.w3.org/2000/svg" xmlns:xlink="http://www.w3.org/1999/xlink" width="500" zoomAndPan="magnify" viewBox="0 0 375 374.999991" height="500" preserveAspectRatio="xMidYMid meet" version="1.0"><defs><g/><clipPath id="d04bad0c73"><path d="M 96.582031 91 L 122 91 L 122 94 L 96.582031 94 Z M 96.582031 91 " clip-rule="nonzero"/></clipPath><clipPath id="7d0824c333"><path d="M 122 9.804688 L 228 9.804688 L 228 119 L 122 119 Z M 122 9.804688 " clip-rule="nonzero"/></clipPath><clipPath id="0184a95fa0"><path d="M 229 76 L 317.082031 76 L 317.082031 365.304688 L 229 365.304688 Z M 229 76 " clip-rule="nonzero"/></clipPath></defs><g clip-path="url(#d04bad0c73)"><path fill="#ffffff" d="M 121.621094 91.597656 L 96.582031 93.890625 L 121.621094 93.714844 Z M 121.621094 91.597656 " fill-opacity="1" fill-rule="nonzero"/></g><path fill="#ffffff" d="M 134.433594 90.542969 L 134.433594 93.742188 L 215.984375 93.246094 L 215.925781 83.082031 Z M 134.433594 90.542969 " fill-opacity="1" fill-rule="nonzero"/><g clip-path="url(#7d0824c333)"><path fill="#ffffff" d="M 225.417969 108.785156 C 225.390625 96.621094 225.242188 55.703125 225.417969 51.207031 C 225.535156 48.269531 223.804688 35.019531 213.3125 24.121094 C 204.261719 14.722656 191.5625 9.964844 175.578125 9.964844 C 127.644531 9.964844 125.351562 53.878906 125.351562 54.410156 L 125.351562 108.753906 C 123.914062 109.695312 122.941406 111.339844 122.941406 113.191406 C 122.941406 116.128906 125.324219 118.507812 128.261719 118.507812 C 131.199219 118.507812 133.582031 116.128906 133.582031 113.191406 C 133.582031 111.046875 132.316406 109.226562 130.464844 108.375 L 130.464844 54.496094 C 130.523438 52.882812 132.523438 15.046875 175.605469 15.046875 C 190.152344 15.046875 201.613281 19.277344 209.667969 27.648438 C 218.160156 36.460938 220.453125 47.859375 220.335938 51 C 220.160156 55.585938 220.277344 95.652344 220.304688 108.375 C 218.484375 109.226562 217.191406 111.046875 217.191406 113.191406 C 217.191406 116.128906 219.570312 118.507812 222.511719 118.507812 C 225.449219 118.507812 227.828125 116.128906 227.828125 113.191406 C 227.828125 111.339844 226.859375 109.722656 225.417969 108.785156 Z M 225.417969 108.785156 " fill-opacity="1" fill-rule="nonzero"/></g><g clip-path="url(#0184a95fa0)"><path fill="#ffffff" d="M 294.570312 83.199219 L 291.132812 76.324219 L 289.722656 76.441406 L 260.714844 79.085938 L 229.621094 81.933594 L 229.710938 93.15625 L 269.738281 92.921875 C 339.179688 209.601562 262.066406 361.859375 260.390625 365.148438 C 341.679688 250.496094 318.519531 122.414062 294.570312 83.199219 Z M 294.570312 83.199219 " fill-opacity="1" fill-rule="nonzero"/></g><g fill="#ffffff" fill-opacity="1"><g transform="translate(49.094188, 197.215182)"><g><path d="M 24.078125 0.636719 C 31.800781 0.636719 38.8125 -3.824219 43.273438 -15.015625 C 43.414062 -15.367188 43.484375 -15.652344 43.484375 -15.933594 C 43.484375 -17.066406 42.5625 -17.917969 41.644531 -17.917969 C 41.007812 -17.917969 40.296875 -17.492188 39.875 -16.5 C 35.976562 -7.292969 30.453125 -3.824219 24.503906 -3.824219 C 17.28125 -3.824219 11.542969 -9.5625 11.542969 -19.546875 C 11.542969 -32.011719 18.769531 -45.894531 27.832031 -45.894531 C 31.234375 -45.894531 33.144531 -43.980469 33.144531 -41.289062 C 33.144531 -38.597656 31.65625 -36.898438 31.65625 -34.984375 C 31.65625 -33.996094 32.367188 -33.285156 33.640625 -33.285156 C 34.632812 -33.285156 35.410156 -33.996094 36.046875 -34.984375 C 37.183594 -36.828125 37.75 -39.730469 37.75 -41.429688 C 37.75 -46.601562 33.925781 -50.355469 27.902344 -50.355469 C 15.296875 -50.355469 6.585938 -34.277344 6.585938 -19.902344 C 6.585938 -6.585938 14.164062 0.636719 24.078125 0.636719 Z M 24.078125 0.636719 "/></g></g></g><g fill="#ffffff" fill-opacity="1"><g transform="translate(86.626881, 197.215182)"><g><path d="M 34.914062 -16.5 C 31.515625 -8.074219 29.25 -4.109375 27.410156 -4.109375 C 25.921875 -4.109375 24.789062 -5.3125 24.789062 -9.417969 C 24.789062 -16.359375 25.78125 -24.644531 25.78125 -26.132812 C 25.78125 -27.621094 24.789062 -28.542969 23.582031 -28.542969 C 22.378906 -28.542969 21.460938 -27.621094 20.964844 -26.203125 C 19.121094 -27.550781 16.855469 -28.1875 15.015625 -28.1875 C 8.355469 -28.1875 1.699219 -21.460938 1.699219 -11.613281 C 1.699219 -4.035156 5.949219 0.285156 11.402344 0.285156 C 14.589844 0.285156 17.777344 -1.203125 20.609375 -5.523438 C 21.671875 -1.628906 23.9375 0.285156 27.125 0.285156 C 31.234375 0.285156 34.417969 -4.390625 38.316406 -15.015625 C 38.457031 -15.367188 38.527344 -15.722656 38.527344 -16.007812 C 38.527344 -17.140625 37.675781 -17.917969 36.757812 -17.917969 C 36.046875 -17.917969 35.339844 -17.492188 34.914062 -16.5 Z M 12.109375 -4.109375 C 8.78125 -4.109375 6.375 -6.515625 6.375 -11.828125 C 6.375 -19.191406 11.117188 -24.007812 15.863281 -24.007812 C 17.917969 -24.007812 19.972656 -22.875 20.609375 -21.882812 C 20.75 -10.765625 17.066406 -4.109375 12.109375 -4.109375 Z M 12.109375 -4.109375 "/></g></g></g><g fill="#ffffff" fill-opacity="1"><g transform="translate(119.202418, 197.215182)"><g><path d="M 46.8125 -16.5 C 43.414062 -7.859375 41.429688 -4.390625 39.519531 -4.390625 C 38.457031 -4.390625 37.75 -5.097656 37.75 -6.800781 C 37.75 -11.332031 38.882812 -18.273438 38.882812 -21.601562 C 38.882812 -25.496094 36.261719 -28.117188 32.367188 -28.117188 C 28.894531 -28.117188 25.78125 -26.203125 23.371094 -22.664062 C 22.449219 -24.789062 20.253906 -26.347656 17.351562 -26.347656 C 13.386719 -26.347656 9.703125 -23.9375 6.941406 -19.191406 C 7.222656 -22.945312 7.507812 -24.859375 7.507812 -25.636719 C 7.507812 -27.335938 6.445312 -28.117188 5.3125 -28.117188 C 4.25 -28.117188 3.046875 -27.265625 2.902344 -25.78125 C 2.335938 -19.832031 1.769531 -11.96875 1.769531 -2.550781 C 1.769531 -0.777344 2.691406 0.140625 4.035156 0.140625 C 5.453125 0.140625 6.445312 -0.777344 6.445312 -2.550781 L 6.445312 -6.515625 C 7.011719 -16.148438 12.75 -21.953125 16.5 -21.953125 C 18.273438 -21.953125 19.121094 -21.105469 19.121094 -19.40625 C 19.121094 -16.925781 17.492188 -12.039062 17.492188 -5.242188 C 17.492188 -2.972656 17.5625 0.0703125 20.183594 0.0703125 C 21.316406 0.0703125 22.378906 -0.707031 22.378906 -2.335938 C 22.378906 -3.257812 22.167969 -5.171875 22.167969 -7.292969 C 22.167969 -7.859375 22.167969 -8.355469 22.238281 -8.851562 C 22.664062 -17.351562 27.195312 -23.796875 31.234375 -23.796875 C 33.144531 -23.796875 34.207031 -22.664062 34.207031 -20.46875 C 34.207031 -18.058594 33.074219 -11.613281 33.074219 -6.871094 C 33.074219 -2.335938 35.410156 0 38.8125 0 C 42.917969 0 46.246094 -4.25 50.214844 -15.015625 C 50.355469 -15.367188 50.425781 -15.652344 50.425781 -15.933594 C 50.425781 -17.140625 49.503906 -17.917969 48.585938 -17.917969 C 47.945312 -17.917969 47.238281 -17.492188 46.8125 -16.5 Z M 46.8125 -16.5 "/></g></g></g><g fill="#ffffff" fill-opacity="1"><g transform="translate(163.675117, 197.215182)"><g><path d="M 31.089844 -16.5 C 29.320312 -11.898438 26.417969 -8.921875 22.449219 -7.222656 C 24.644531 -10.550781 26.132812 -14.660156 26.132812 -18.484375 C 26.132812 -24.574219 22.664062 -28.613281 17.421875 -28.613281 C 13.03125 -28.613281 9.136719 -25.707031 6.515625 -21.671875 C 6.304688 -23.726562 6.019531 -25.566406 5.738281 -27.195312 C 5.523438 -28.328125 4.601562 -28.894531 3.613281 -28.894531 C 2.40625 -28.894531 1.273438 -28.117188 1.273438 -26.628906 C 1.273438 -24.789062 2.265625 -22.308594 2.265625 -13.386719 C 2.265625 -1.0625 -0.285156 12.605469 -0.285156 15.015625 C -0.285156 16.714844 0.921875 17.636719 2.054688 17.636719 C 3.117188 17.636719 4.179688 16.925781 4.390625 15.367188 C 5.878906 3.964844 6.941406 -5.523438 6.941406 -13.386719 C 8.214844 -19.191406 12.75 -24.222656 16.925781 -24.222656 C 19.6875 -24.222656 21.460938 -22.027344 21.460938 -18.625 C 21.460938 -13.882812 18.769531 -8.355469 15.296875 -5.523438 C 14.164062 -5.453125 13.03125 -5.382812 11.828125 -5.382812 C 9.84375 -5.382812 8.710938 -3.894531 8.710938 -2.40625 C 8.710938 -0.992188 9.773438 0.355469 11.96875 0.355469 C 13.882812 0.355469 15.933594 -0.566406 17.847656 -2.125 C 26.203125 -3.46875 31.800781 -7.648438 34.492188 -15.015625 C 34.632812 -15.367188 34.703125 -15.722656 34.703125 -16.078125 C 34.703125 -17.28125 33.851562 -17.988281 32.933594 -17.988281 C 32.222656 -17.988281 31.445312 -17.492188 31.089844 -16.5 Z M 31.089844 -16.5 "/></g></g></g><g fill="#ffffff" fill-opacity="1"><g transform="translate(192.426576, 197.215182)"><g><path d="M 33.214844 -16.5 C 29.957031 -8.355469 27.761719 -4.179688 26.0625 -4.179688 C 24.292969 -4.179688 23.582031 -6.726562 23.582031 -12.820312 C 23.582031 -16.007812 23.796875 -20.113281 24.71875 -26.0625 C 24.929688 -27.480469 23.9375 -28.542969 22.59375 -28.542969 C 21.246094 -28.542969 20.324219 -27.761719 20.183594 -26.488281 C 19.902344 -23.796875 19.546875 -20.820312 19.335938 -17.777344 C 18.203125 -8.429688 13.808594 -4.179688 9.773438 -4.179688 C 7.367188 -4.179688 6.160156 -5.453125 6.160156 -8.074219 C 6.160156 -12.179688 7.859375 -19.546875 7.859375 -24.71875 C 7.859375 -27.335938 5.808594 -29.605469 3.328125 -29.605469 C 1.984375 -29.605469 1.0625 -28.753906 1.0625 -27.550781 C 1.0625 -25.707031 3.117188 -26.132812 3.117188 -23.441406 C 3.117188 -19.832031 1.488281 -13.242188 1.488281 -7.789062 C 1.488281 -2.972656 4.746094 0.210938 9.417969 0.210938 C 13.386719 0.210938 16.925781 -2.054688 19.546875 -6.871094 C 20.539062 -1.699219 22.945312 0.210938 25.636719 0.210938 C 29.605469 0.210938 32.367188 -3.683594 36.613281 -15.015625 C 36.757812 -15.367188 36.828125 -15.652344 36.828125 -15.933594 C 36.828125 -17.140625 35.90625 -17.917969 34.984375 -17.917969 C 34.347656 -17.917969 33.640625 -17.492188 33.214844 -16.5 Z M 33.214844 -16.5 "/></g></g></g><g fill="#ffffff" fill-opacity="1"><g transform="translate(223.302527, 197.215182)"><g><path d="M 25.992188 -16.5 C 24.574219 -13.171875 22.875 -10.128906 20.398438 -8.003906 C 20.46875 -8.355469 20.46875 -8.710938 20.46875 -9.066406 C 20.46875 -15.792969 12.605469 -22.875 12.605469 -25.78125 C 12.605469 -27.125 13.953125 -27.691406 13.953125 -29.179688 C 13.953125 -30.949219 12.253906 -31.941406 10.550781 -31.941406 C 8.640625 -31.941406 6.585938 -30.59375 6.515625 -27.550781 C 5.171875 -23.65625 3.542969 -19.40625 2.335938 -16.5 C 2.195312 -16.21875 2.125 -15.863281 2.125 -15.582031 C 2.125 -14.519531 3.046875 -13.667969 4.035156 -13.667969 C 4.675781 -13.667969 5.382812 -14.09375 5.738281 -15.015625 C 6.65625 -17.28125 7.578125 -19.757812 8.640625 -22.664062 C 11.402344 -18.414062 15.792969 -12.890625 15.792969 -9.066406 C 15.792969 -7.222656 15.085938 -5.808594 13.882812 -5.097656 C 13.242188 -5.027344 12.605469 -4.957031 11.96875 -4.957031 C 10.480469 -4.957031 9.277344 -5.242188 7.859375 -5.808594 C 7.4375 -5.949219 7.082031 -6.019531 6.726562 -6.019531 C 5.382812 -6.019531 4.53125 -5.027344 4.53125 -3.824219 C 4.53125 -2.972656 4.957031 -2.054688 5.949219 -1.34375 C 7.367188 -0.355469 9.347656 0.210938 11.332031 0.210938 C 13.457031 0.210938 15.582031 -0.425781 17.28125 -1.699219 C 22.378906 -3.46875 26.347656 -7.507812 29.390625 -15.015625 C 29.53125 -15.367188 29.605469 -15.722656 29.605469 -16.078125 C 29.605469 -17.210938 28.753906 -17.988281 27.832031 -17.988281 C 27.125 -17.988281 26.417969 -17.5625 25.992188 -16.5 Z M 25.992188 -16.5 "/></g></g></g><g fill="#ffffff" fill-opacity="1"><g transform="translate(246.95355, 197.215182)"><g/></g></g><g fill="#ffffff" fill-opacity="1"><g transform="translate(260.762745, 197.215182)"><g/></g></g><g fill="#ffffff" fill-opacity="1"><g transform="translate(274.571941, 197.215182)"><g/></g></g><g fill="#ffffff" fill-opacity="1"><g transform="translate(288.381136, 197.215182)"><g/></g></g><g fill="#ffffff" fill-opacity="1"><g transform="translate(302.190332, 197.215182)"><g/></g></g><g fill="#ffffff" fill-opacity="1"><g transform="translate(329.808723, 197.215182)"><g/></g></g><g fill="#ffffff" fill-opacity="1"><g transform="translate(343.617919, 197.215182)"><g/></g></g><g fill="#ffffff" fill-opacity="1"><g transform="translate(357.427114, 197.215182)"><g/></g></g><g fill="#ffffff" fill-opacity="1"><g transform="translate(371.23631, 197.215182)"><g/></g></g><g fill="#ffffff" fill-opacity="1"><g transform="translate(153.531681, 268.465178)"><g><path d="M 24.078125 0.636719 C 31.800781 0.636719 38.8125 -3.824219 43.273438 -15.015625 C 43.414062 -15.367188 43.484375 -15.652344 43.484375 -15.933594 C 43.484375 -17.066406 42.5625 -17.917969 41.644531 -17.917969 C 41.007812 -17.917969 40.296875 -17.492188 39.875 -16.5 C 35.976562 -7.292969 30.453125 -3.824219 24.503906 -3.824219 C 17.28125 -3.824219 11.542969 -9.5625 11.542969 -19.546875 C 11.542969 -32.011719 18.769531 -45.894531 27.832031 -45.894531 C 31.234375 -45.894531 33.144531 -43.980469 33.144531 -41.289062 C 33.144531 -38.597656 31.65625 -36.898438 31.65625 -34.984375 C 31.65625 -33.996094 32.367188 -33.285156 33.640625 -33.285156 C 34.632812 -33.285156 35.410156 -33.996094 36.046875 -34.984375 C 37.183594 -36.828125 37.75 -39.730469 37.75 -41.429688 C 37.75 -46.601562 33.925781 -50.355469 27.902344 -50.355469 C 15.296875 -50.355469 6.585938 -34.277344 6.585938 -19.902344 C 6.585938 -6.585938 14.164062 0.636719 24.078125 0.636719 Z M 24.078125 0.636719 "/></g></g></g><g fill="#ffffff" fill-opacity="1"><g transform="translate(191.064374, 268.465178)"><g><path d="M 34.914062 -16.5 C 31.515625 -8.074219 29.25 -4.109375 27.410156 -4.109375 C 25.921875 -4.109375 24.789062 -5.3125 24.789062 -9.417969 C 24.789062 -16.359375 25.78125 -24.644531 25.78125 -26.132812 C 25.78125 -27.621094 24.789062 -28.542969 23.582031 -28.542969 C 22.378906 -28.542969 21.460938 -27.621094 20.964844 -26.203125 C 19.121094 -27.550781 16.855469 -28.1875 15.015625 -28.1875 C 8.355469 -28.1875 1.699219 -21.460938 1.699219 -11.613281 C 1.699219 -4.035156 5.949219 0.285156 11.402344 0.285156 C 14.589844 0.285156 17.777344 -1.203125 20.609375 -5.523438 C 21.671875 -1.628906 23.9375 0.285156 27.125 0.285156 C 31.234375 0.285156 34.417969 -4.390625 38.316406 -15.015625 C 38.457031 -15.367188 38.527344 -15.722656 38.527344 -16.007812 C 38.527344 -17.140625 37.675781 -17.917969 36.757812 -17.917969 C 36.046875 -17.917969 35.339844 -17.492188 34.914062 -16.5 Z M 12.109375 -4.109375 C 8.78125 -4.109375 6.375 -6.515625 6.375 -11.828125 C 6.375 -19.191406 11.117188 -24.007812 15.863281 -24.007812 C 17.917969 -24.007812 19.972656 -22.875 20.609375 -21.882812 C 20.75 -10.765625 17.066406 -4.109375 12.109375 -4.109375 Z M 12.109375 -4.109375 "/></g></g></g><g fill="#ffffff" fill-opacity="1"><g transform="translate(223.639911, 268.465178)"><g><path d="M 27.976562 -16.5 C 25.210938 -9.84375 22.523438 -4.109375 18.769531 -4.109375 C 16.5 -4.109375 14.660156 -5.949219 14.660156 -9.773438 C 14.660156 -14.589844 17.28125 -19.476562 20.042969 -23.582031 C 20.46875 -24.222656 20.820312 -25 20.820312 -25.707031 C 20.820312 -27.054688 19.832031 -27.902344 18.695312 -27.902344 C 17.421875 -27.902344 16.855469 -27.265625 15.015625 -27.265625 C 13.101562 -27.265625 10.835938 -28.1875 10.058594 -30.3125 C 9.703125 -31.304688 8.851562 -31.800781 8.003906 -31.800781 C 6.941406 -31.800781 5.878906 -30.949219 5.878906 -29.320312 C 5.878906 -28.894531 6.019531 -28.046875 6.089844 -27.621094 C 5.878906 -25.992188 3.753906 -20.042969 2.335938 -16.5 C 2.195312 -16.148438 2.125 -15.863281 2.125 -15.582031 C 2.125 -14.378906 3.046875 -13.667969 3.964844 -13.667969 C 4.675781 -13.667969 5.382812 -14.09375 5.738281 -15.015625 C 6.871094 -18.128906 8.214844 -21.742188 9.347656 -25.210938 C 10.410156 -24.433594 13.171875 -23.65625 14.800781 -23.511719 C 11.828125 -18.554688 9.984375 -13.808594 9.984375 -9.417969 C 9.984375 -3.328125 13.597656 0.285156 18.414062 0.285156 C 25.070312 0.285156 28.542969 -7.367188 31.375 -15.015625 C 31.515625 -15.367188 31.585938 -15.722656 31.585938 -16.007812 C 31.585938 -17.210938 30.738281 -18.058594 29.816406 -18.058594 C 29.179688 -18.058594 28.46875 -17.636719 27.976562 -16.5 Z M 27.976562 -16.5 "/></g></g></g><g fill="#ffffff" fill-opacity="1"><g transform="translate(249.275442, 268.465178)"><g><path d="M 21.53125 -16.5 C 18.910156 -9.84375 15.582031 -4.460938 11.332031 -4.460938 C 8.074219 -4.460938 6.445312 -6.65625 6.445312 -11.472656 C 6.445312 -14.378906 7.011719 -19.335938 7.789062 -24.078125 C 8.003906 -25.210938 8.285156 -27.335938 8.640625 -29.886719 C 12.179688 -29.53125 14.660156 -29.039062 15.511719 -29.039062 C 16.644531 -29.039062 17.351562 -30.027344 17.351562 -31.019531 C 17.351562 -31.871094 16.855469 -32.648438 15.722656 -32.933594 C 13.527344 -33.5 11.402344 -33.78125 9.207031 -33.996094 C 9.703125 -38.101562 10.199219 -42.140625 10.199219 -43.554688 C 10.199219 -44.972656 9.347656 -45.894531 8.003906 -45.894531 C 6.585938 -45.894531 5.59375 -45.042969 5.523438 -43.625 C 5.382812 -40.511719 5.027344 -37.324219 4.601562 -34.277344 L 2.195312 -34.277344 C 0.566406 -34.277344 -0.210938 -33.285156 -0.210938 -32.296875 C -0.210938 -31.234375 0.566406 -30.242188 2.054688 -30.242188 L 4.035156 -30.242188 C 3.753906 -28.257812 3.46875 -26.417969 3.1875 -24.789062 C 2.40625 -19.832031 1.769531 -15.015625 1.769531 -11.828125 C 1.769531 -4.25 4.957031 -0.0703125 10.976562 -0.0703125 C 17.917969 -0.0703125 22.238281 -7.578125 24.929688 -15.015625 C 25.070312 -15.4375 25.140625 -15.792969 25.140625 -16.148438 C 25.140625 -17.351562 24.363281 -18.128906 23.441406 -18.128906 C 22.734375 -18.128906 21.953125 -17.636719 21.53125 -16.5 Z M 21.53125 -16.5 "/></g></g></g><g fill="#ffffff" fill-opacity="1"><g transform="translate(268.457458, 268.465178)"><g/></g></g><g fill="#ffffff" fill-opacity="1"><g transform="translate(282.266654, 268.465178)"><g/></g></g><g fill="#ffffff" fill-opacity="1"><g transform="translate(296.075849, 268.465178)"><g/></g></g><g fill="#ffffff" fill-opacity="1"><g transform="translate(309.885045, 268.465178)"><g/></g></g><g fill="#ffffff" fill-opacity="1"><g transform="translate(323.694241, 268.465178)"><g/></g></g><g fill="#ffffff" fill-opacity="1"><g transform="translate(337.492606, 339.715173)"><g/></g></g></svg>